<?xml version="1.0" encoding="utf-8"?>
<!-- Generator: Adobe Illustrator 16.0.4, SVG Export Plug-In . SVG Version: 6.00 Build 0)  -->
<!DOCTYPE svg PUBLIC "-//W3C//DTD SVG 1.1//EN" "http://www.w3.org/Graphics/SVG/1.1/DTD/svg11.dtd">
<svg version="1.1" id="Layer_1" xmlns="http://www.w3.org/2000/svg" xmlns:xlink="http://www.w3.org/1999/xlink" x="0px" y="0px"
	 width="595.28px" height="841.89px" viewBox="0 0 595.28 841.89" enable-background="new 0 0 595.28 841.89" xml:space="preserve">
<path fill="none" stroke="#E9B320" stroke-width="8" stroke-miterlimit="10" d="M303.311,438.09
	c1.915,2.265,3.475,4.895,4.564,7.838c5.035,13.603-1.91,28.715-15.513,33.75c-13.602,5.036-28.713-1.911-33.748-15.514
	c-3.147-8.501-1.614-17.593,3.299-24.445"/>
<text transform="matrix(1 0 0 1 325.8027 436.3574)" fill="#BE1E2D" font-family="'AndaleMono'" font-size="56" letter-spacing="4">ox</text>
<text transform="matrix(1 0 0 1 324.8027 473.6904)" fill="#BE1E2D" font-family="'SimHei'" font-size="36">八牛</text>
<ellipse transform="matrix(1 0.0012 -0.0012 1 0.4958 -0.3483)" fill="none" stroke="#BE1E2D" stroke-width="8" stroke-miterlimit="10" cx="282.744" cy="401.939" rx="38.02" ry="41.605"/>
<g>
	<g>
		<path fill="#BE1E2D" d="M250.131,374.898c-8.529-2.15-16.322-5.761-25.294-4.37c-8.313,1.289-15.951,3.723-24.463,3.973
			c-15.256,0.447-32.384-3.848-39.819-18.449c-1.322-2.597-5.235-0.754-4.569,1.926c3.884,15.635,19.6,24.413,33.972,28.723
			c8.735,2.62,17.353,2.302,26.355,1.666c5.498-0.388,11.029-0.784,16.481,0.233c4.549,0.849,8.767,2.647,13.39,3.267
			c3.188,0.427,3.147-4.578,0-5c-4.144-0.556-8.011-2.132-12.061-3.088c-3.709-0.876-7.592-0.88-11.377-0.78
			c-8.936,0.235-17.861,1.874-26.732,0.072c-14.168-2.878-31.422-11.19-35.206-26.42c-1.523,0.642-3.046,1.284-4.569,1.926
			c7.064,13.872,21.804,19.43,36.533,20.718c7.621,0.667,15.361-0.042,22.852-1.486c5.897-1.137,11.449-3.442,17.547-2.417
			c5.347,0.9,10.39,3.006,15.632,4.328C251.93,380.508,253.256,375.686,250.131,374.898L250.131,374.898z"/>
	</g>
</g>
<g>
	<g>
		<path fill="#BE1E2D" d="M315.729,379.719c4.705-1.186,9.245-2.917,13.975-4.015c6.344-1.473,11.942,0.499,18.071,1.867
			c7.427,1.658,15.131,2.205,22.719,1.81c15.077-0.785,30.617-6.7,37.799-20.806c-1.522-0.642-3.046-1.284-4.569-1.926
			c-3.739,15.058-20.224,22.819-34.045,26.163c-8.638,2.089-17.563,0.731-26.312,0.253c-3.762-0.206-7.657-0.275-11.377,0.418
			c-4.623,0.862-8.972,2.757-13.643,3.383c-3.146,0.422-3.188,5.427,0,5c4.121-0.553,7.932-1.815,11.923-2.92
			c5.284-1.463,10.917-1.033,16.317-0.691c9.175,0.581,17.81,1.127,26.786-1.217c14.771-3.857,31.238-13.224,35.172-29.06
			c0.665-2.681-3.248-4.523-4.569-1.926c-7.306,14.348-23.595,18.433-38.555,18.466c-8.296,0.019-16.146-1.741-24.16-3.666
			c-9.44-2.268-17.871,1.779-26.862,4.045C311.274,375.686,312.602,380.508,315.729,379.719L315.729,379.719z"/>
	</g>
</g>
</svg>
