<?xml version="1.0" encoding="utf-8"?>
<!-- Generator: Adobe Illustrator 16.0.4, SVG Export Plug-In . SVG Version: 6.00 Build 0)  -->
<!DOCTYPE svg PUBLIC "-//W3C//DTD SVG 1.1//EN" "http://www.w3.org/Graphics/SVG/1.1/DTD/svg11.dtd">
<svg version="1.1" id="Layer_1" xmlns="http://www.w3.org/2000/svg" xmlns:xlink="http://www.w3.org/1999/xlink" x="0px" y="0px"
	 width="252.711px" height="130.517px" viewBox="0 0 252.711 130.517" enable-background="new 0 0 252.711 130.517"
	 xml:space="preserve">
<path fill="none" stroke="#E9B320" stroke-width="8" stroke-miterlimit="10" d="M147.4,83.289c1.915,2.265,3.475,4.895,4.564,7.838
	c5.035,13.603-1.91,28.715-15.513,33.75c-13.602,5.036-28.713-1.911-33.748-15.514c-3.147-8.501-1.614-17.593,3.299-24.445"/>
<g>
	<path fill="#BE1E2D" d="M186.682,52.38c3.919,0,7.036,1.367,9.352,4.102c2.314,2.734,3.473,6.335,3.473,10.801
		c0,4.502-1.158,8.13-3.473,10.883c-2.315,2.752-5.433,4.129-9.352,4.129c-3.938,0-7.06-1.372-9.365-4.115
		c-2.307-2.744-3.459-6.376-3.459-10.896c0-4.485,1.157-8.089,3.473-10.815C179.645,53.743,182.762,52.38,186.682,52.38z
		 M186.682,78.576c2.588,0,4.63-1.094,6.125-3.281c1.494-2.188,2.242-4.84,2.242-7.957c0-3.282-0.738-5.979-2.215-8.094
		c-1.477-2.114-3.527-3.172-6.152-3.172c-2.644,0-4.694,1.044-6.152,3.131c-1.459,2.087-2.188,4.799-2.188,8.135
		c0,3.172,0.738,5.838,2.215,7.998S184.074,78.576,186.682,78.576z"/>
	<path fill="#BE1E2D" d="M236.826,81.556h-4.812L224.385,70.4l-7.902,11.156h-4.539l10.145-14.273l-10.145-14.219h4.895
		l7.656,11.074l7.793-11.074h4.539l-10.09,14.055L236.826,81.556z"/>
</g>
<g>
	<path fill="#BE1E2D" d="M181.971,102.999c-0.938,4.407-2.039,7.853-3.305,10.336c-1.266,2.485-3.118,5.087-5.555,7.805
		c-0.376-0.562-1.314-1.266-2.812-2.109c3.467-2.718,5.998-6.491,7.594-11.32c1.593-4.827,2.437-9.866,2.531-15.117
		c1.03,0.47,2.155,0.798,3.375,0.984C183.609,93.953,183.001,97.092,181.971,102.999z M194.979,105.881
		c1.357,5.392,4.1,9.914,8.227,13.57c-1.033,0.187-2.109,0.844-3.234,1.969c-2.063-2.531-3.797-5.155-5.203-7.875
		c-1.314-2.812-2.32-5.952-3.023-9.422c-0.703-3.468-1.385-7.875-2.039-13.219c1.125,0.095,2.201,0.095,3.234,0
		C192.939,95.5,193.618,100.492,194.979,105.881z"/>
	<path fill="#BE1E2D" d="M207.143,107.92c4.029,0.095,7.218,0.141,9.562,0.141h6.188v-8.438h-8.438
		c-1.033,2.25-2.063,4.126-3.094,5.625c-0.752-0.468-1.688-0.89-2.812-1.266c1.779-2.25,3.14-4.616,4.078-7.102
		c0.936-2.483,1.452-4.382,1.547-5.695c0.936,0.376,1.969,0.703,3.094,0.984c-0.376,0.751-1.033,2.438-1.969,5.062h7.594v-3.797
		c0-0.468-0.049-1.733-0.141-3.797h3.094c-0.095,1.595-0.141,2.86-0.141,3.797v3.797h5.203c1.779,0,3.516-0.046,5.203-0.141v2.672
		c-1.501,0-3.234-0.046-5.203-0.141h-5.203v8.438h3.656c2.812,0,6.047-0.046,9.703-0.141v2.672
		c-3.564-0.093-6.799-0.141-9.703-0.141h-3.656v7.734c0,0.937,0.046,2.391,0.141,4.359h-3.094c0.092-3.47,0.141-7.172,0.141-11.109
		v-0.984h-6.469c-2.721,0.095-5.814,0.141-9.281,0.141V107.92z"/>
</g>
<ellipse transform="matrix(1 0.0012 -0.0012 1 0.0582 -0.1563)" fill="none" stroke="#BE1E2D" stroke-width="8" stroke-miterlimit="10" cx="126.834" cy="47.138" rx="38.02" ry="41.605"/>
<g>
	<g>
		<path fill="#BE1E2D" d="M94.221,20.097c-8.529-2.15-16.322-5.761-25.294-4.37c-8.313,1.289-15.951,3.723-24.463,3.973
			C29.208,20.146,12.08,15.852,4.645,1.25C3.323-1.346-0.59,0.496,0.076,3.177c3.884,15.635,19.6,24.413,33.972,28.723
			c8.735,2.62,17.353,2.302,26.355,1.666c5.498-0.388,11.029-0.784,16.481,0.233c4.549,0.849,8.767,2.647,13.39,3.267
			c3.188,0.427,3.147-4.578,0-5c-4.144-0.556-8.011-2.132-12.061-3.088c-3.709-0.876-7.592-0.88-11.377-0.78
			c-8.936,0.235-17.861,1.874-26.732,0.072C25.935,25.39,8.681,17.078,4.897,1.848C3.374,2.49,1.851,3.132,0.328,3.774
			c7.064,13.872,21.804,19.43,36.533,20.718c7.621,0.667,15.361-0.042,22.852-1.486c5.897-1.137,11.449-3.442,17.547-2.417
			c5.347,0.9,10.39,3.006,15.632,4.328C96.02,25.707,97.346,20.884,94.221,20.097L94.221,20.097z"/>
	</g>
</g>
<g>
	<g>
		<path fill="#BE1E2D" d="M159.819,24.918c4.705-1.186,9.245-2.917,13.975-4.015c6.344-1.473,11.942,0.499,18.071,1.867
			c7.427,1.658,15.131,2.205,22.719,1.81c15.077-0.785,30.617-6.7,37.799-20.806c-1.522-0.642-3.046-1.284-4.569-1.926
			c-3.739,15.058-20.224,22.819-34.045,26.163c-8.638,2.089-17.563,0.731-26.312,0.253c-3.762-0.206-7.657-0.275-11.377,0.418
			c-4.623,0.862-8.972,2.757-13.643,3.383c-3.146,0.422-3.188,5.427,0,5c4.121-0.553,7.932-1.815,11.923-2.92
			c5.284-1.463,10.917-1.033,16.317-0.691c9.175,0.581,17.81,1.127,26.786-1.217c14.771-3.857,31.238-13.224,35.172-29.06
			c0.665-2.681-3.248-4.523-4.569-1.926c-7.306,14.348-23.595,18.433-38.555,18.466c-8.296,0.019-16.146-1.741-24.16-3.666
			c-9.44-2.268-17.871,1.779-26.862,4.045C155.364,20.884,156.691,25.707,159.819,24.918L159.819,24.918z"/>
	</g>
</g>
</svg>
